#N canvas 90 22 1160 717 10;
#X obj 61 43 metro 200;
#X floatatom 106 18 5 0 0 0 - - -;
#X obj 57 17 tgl 15 0 empty empty empty 17 7 0 10 -262144 -1 -1 0 1
;
#X obj 63 66 cup;
#X floatatom 64 91 5 0 0 0 - - -;
#X msg 23 42 0;
#X obj 63 114 % 8;
#X floatatom 63 137 5 0 0 0 - - -;
#X obj 64 161 hradio 15 1 0 8 empty empty empty 0 -8 0 10 -4034 -13381
-13381 5;
#X floatatom 60 182 5 0 0 0 - - -;
#X obj 60 216 sel 0 1 2 3 4 5 6 7;
#X obj 112 252 bng 15 250 50 0 empty empty empty 17 7 0 10 -262144
-1 -1;
#X obj 138 252 bng 15 250 50 0 empty empty empty 17 7 0 10 -262144
-1 -1;
#X obj 164 252 bng 15 250 50 0 empty empty empty 17 7 0 10 -262144
-1 -1;
#X obj 191 252 bng 15 250 50 0 empty empty empty 17 7 0 10 -262144
-1 -1;
#X obj 217 251 bng 15 250 50 0 empty empty empty 17 7 0 10 -262144
-1 -1;
#X obj 245 250 bng 15 250 50 0 empty empty empty 17 7 0 10 -262144
-1 -1;
#X obj 273 255 bng 15 250 50 0 empty empty empty 17 7 0 10 -262144
-1 -1;
#X obj 82 252 bng 15 250 50 0 empty empty empty 17 7 0 10 -262144 -1
-1;
#X obj 58 252 bng 15 250 50 0 empty empty empty 17 7 0 10 -262144 -1
-1;
#X obj 350 39 metro 200;
#X floatatom 395 14 5 0 0 0 - - -;
#X obj 346 13 tgl 15 0 empty empty empty 17 7 0 10 -262144 -1 -1 0
1;
#X floatatom 353 87 5 0 0 0 - - -;
#X msg 312 38 0;
#X obj 352 110 % 8;
#X floatatom 352 133 5 0 0 0 - - -;
#X obj 353 157 hradio 15 1 0 8 empty empty empty 0 -8 0 10 -4034 -13381
-13381 2;
#X floatatom 349 178 5 0 0 0 - - -;
#X obj 352 62 float;
#X obj 398 71 + 2;
#X floatatom 434 45 5 0 0 0 - - -;
#X msg 57 289 60;
#X msg 100 289 62;
#X msg 137 287 64;
#X msg 174 290 66;
#X msg 214 291 68;
#X msg 253 294 70;
#X msg 290 290 72;
#X msg 328 291 74;
#X obj 59 324 mtof;
#X obj 59 359 sig~;
#X obj 58 385 osc~;
#X obj 59 411 *~ 1;
#X obj 58 441 dac~;
#X obj 370 226 sel 0 1 2 3 4 5 6 7;
#X obj 422 262 bng 15 250 50 0 empty empty empty 17 7 0 10 -262144
-1 -1;
#X obj 448 262 bng 15 250 50 0 empty empty empty 17 7 0 10 -262144
-1 -1;
#X obj 474 262 bng 15 250 50 0 empty empty empty 17 7 0 10 -262144
-1 -1;
#X obj 501 262 bng 15 250 50 0 empty empty empty 17 7 0 10 -262144
-1 -1;
#X obj 527 261 bng 15 250 50 0 empty empty empty 17 7 0 10 -262144
-1 -1;
#X obj 555 260 bng 15 250 50 0 empty empty empty 17 7 0 10 -262144
-1 -1;
#X obj 583 265 bng 15 250 50 0 empty empty empty 17 7 0 10 -262144
-1 -1;
#X obj 392 262 bng 15 250 50 0 empty empty empty 17 7 0 10 -262144
-1 -1;
#X obj 368 262 bng 15 250 50 0 empty empty empty 17 7 0 10 -262144
-1 -1;
#X obj 373 422 noteout;
#X msg 340 319 60 100 1;
#X msg 376 296 62 100 1;
#X msg 411 321 64 100 1;
#X msg 451 296 66 100 1;
#X msg 478 320 68 100 1;
#X msg 514 295 70 100 1;
#X msg 542 319 72 100 1;
#X text 440 421 midi--Piano 1;
#X msg 153 19 0;
#X text 179 19 <killswitch;
#X msg 1052 333 \; pd dsp 1 \; metro 1;
#X msg 1062 400 \; metro 0;
#N canvas 0 22 450 300 (subpatch) 0;
#X array array99 100 float 0;
#X coords 0 1 100 -1 200 100 1;
#X restore 918 464 graph;
#X obj 878 262 bng 15 250 50 0 empty empty empty 17 7 0 10 -262144
-1 -1;
#X obj 906 267 bng 15 250 50 0 empty empty empty 17 7 0 10 -262144
-1 -1;
#X msg 886 306 70;
#X msg 923 302 72;
#X msg 961 303 74;
#X text 478 48;
#X msg 589 297 74 100 1;
#X obj 713 476 metro 500;
#X obj 697 421 phasor~;
#X obj 713 451 r metro;
#X obj 697 500 tabwrite~ array99;
#X obj 697 395 sig~;
#X obj 651 450 dac~;
#X obj 694 55 metro 200;
#X floatatom 739 30 5 0 0 0 - - -;
#X obj 690 29 tgl 15 0 empty empty empty 17 7 0 10 -262144 -1 -1 0
1;
#X obj 696 78 cup;
#X floatatom 697 103 5 0 0 0 - - -;
#X msg 656 54 0;
#X obj 696 126 % 8;
#X floatatom 696 149 5 0 0 0 - - -;
#X obj 697 173 hradio 15 1 0 8 empty empty empty 0 -8 0 10 -4034 -13381
-13381 0;
#X floatatom 693 194 5 0 0 0 - - -;
#X obj 693 228 sel 0 1 2 3 4 5 6 7;
#X obj 745 264 bng 15 250 50 0 empty empty empty 17 7 0 10 -262144
-1 -1;
#X obj 771 264 bng 15 250 50 0 empty empty empty 17 7 0 10 -262144
-1 -1;
#X obj 797 264 bng 15 250 50 0 empty empty empty 17 7 0 10 -262144
-1 -1;
#X obj 824 264 bng 15 250 50 0 empty empty empty 17 7 0 10 -262144
-1 -1;
#X obj 850 263 bng 15 250 50 0 empty empty empty 17 7 0 10 -262144
-1 -1;
#X obj 715 264 bng 15 250 50 0 empty empty empty 17 7 0 10 -262144
-1 -1;
#X obj 691 264 bng 15 250 50 0 empty empty empty 17 7 0 10 -262144
-1 -1;
#X msg 690 301 60;
#X msg 733 301 62;
#X msg 770 299 64;
#X msg 807 302 66;
#X msg 847 303 68;
#X obj 692 336 mtof;
#X msg 786 31 0;
#X text 812 31 <killswitch;
#X obj 548 573 complex-mod~;
#X connect 0 0 3 0;
#X connect 1 0 0 1;
#X connect 2 0 0 0;
#X connect 3 0 4 0;
#X connect 4 0 6 0;
#X connect 5 0 3 0;
#X connect 6 0 7 0;
#X connect 7 0 8 0;
#X connect 8 0 9 0;
#X connect 9 0 10 0;
#X connect 10 0 19 0;
#X connect 10 1 18 0;
#X connect 10 2 11 0;
#X connect 10 3 12 0;
#X connect 10 4 13 0;
#X connect 10 5 14 0;
#X connect 10 6 15 0;
#X connect 10 7 16 0;
#X connect 10 8 17 0;
#X connect 11 0 34 0;
#X connect 12 0 35 0;
#X connect 13 0 36 0;
#X connect 14 0 37 0;
#X connect 15 0 38 0;
#X connect 16 0 39 0;
#X connect 18 0 33 0;
#X connect 19 0 32 0;
#X connect 20 0 29 0;
#X connect 21 0 20 1;
#X connect 22 0 20 0;
#X connect 23 0 25 0;
#X connect 24 0 29 0;
#X connect 25 0 26 0;
#X connect 26 0 27 0;
#X connect 27 0 28 0;
#X connect 28 0 45 0;
#X connect 29 0 23 0;
#X connect 29 0 30 0;
#X connect 30 0 29 1;
#X connect 31 0 30 1;
#X connect 32 0 40 0;
#X connect 33 0 40 0;
#X connect 34 0 40 0;
#X connect 35 0 40 0;
#X connect 36 0 40 0;
#X connect 37 0 40 0;
#X connect 38 0 40 0;
#X connect 39 0 40 0;
#X connect 40 0 41 0;
#X connect 41 0 42 0;
#X connect 42 0 43 0;
#X connect 43 0 44 0;
#X connect 43 0 44 1;
#X connect 45 0 54 0;
#X connect 45 1 53 0;
#X connect 45 2 46 0;
#X connect 45 3 47 0;
#X connect 45 4 48 0;
#X connect 45 5 49 0;
#X connect 45 6 50 0;
#X connect 45 7 51 0;
#X connect 45 8 52 0;
#X connect 46 0 58 0;
#X connect 47 0 59 0;
#X connect 48 0 60 0;
#X connect 49 0 61 0;
#X connect 50 0 62 0;
#X connect 51 0 75 0;
#X connect 53 0 57 0;
#X connect 54 0 56 0;
#X connect 56 0 55 0;
#X connect 57 0 55 0;
#X connect 58 0 55 0;
#X connect 59 0 55 0;
#X connect 60 0 55 0;
#X connect 61 0 55 0;
#X connect 62 0 55 0;
#X connect 64 0 40 0;
#X connect 69 0 73 0;
#X connect 71 0 105 0;
#X connect 72 0 105 0;
#X connect 73 0 105 0;
#X connect 75 0 55 0;
#X connect 76 0 79 0;
#X connect 77 0 79 0;
#X connect 77 0 81 0;
#X connect 77 0 81 1;
#X connect 78 0 76 0;
#X connect 78 0 76 0;
#X connect 80 0 77 0;
#X connect 82 0 85 0;
#X connect 83 0 82 1;
#X connect 84 0 82 0;
#X connect 85 0 86 0;
#X connect 86 0 88 0;
#X connect 87 0 85 0;
#X connect 88 0 89 0;
#X connect 89 0 90 0;
#X connect 90 0 91 0;
#X connect 91 0 92 0;
#X connect 92 0 99 0;
#X connect 92 1 98 0;
#X connect 92 2 93 0;
#X connect 92 3 94 0;
#X connect 92 4 95 0;
#X connect 92 5 96 0;
#X connect 92 6 97 0;
#X connect 92 7 69 0;
#X connect 92 8 70 0;
#X connect 93 0 102 0;
#X connect 94 0 103 0;
#X connect 95 0 104 0;
#X connect 96 0 71 0;
#X connect 97 0 72 0;
#X connect 98 0 101 0;
#X connect 99 0 100 0;
#X connect 100 0 105 0;
#X connect 101 0 105 0;
#X connect 102 0 105 0;
#X connect 103 0 105 0;
#X connect 104 0 105 0;
#X connect 105 0 80 0;
#X connect 106 0 105 0;
