#N canvas 211 22 1160 717 10;
#X obj 50 288 metro 200;
#X floatatom 93 260 5 0 0 0 - - -;
#X obj 440 78 tgl 15 0 empty empty empty 17 7 0 10 -262144 -1 -1 0
1;
#X obj 52 311 cup;
#X floatatom 53 336 5 0 0 0 - - -;
#X msg 12 287 0;
#X obj 52 359 % 8;
#X floatatom 52 382 5 0 0 0 - - -;
#X obj 53 406 hradio 15 1 0 8 empty empty empty 0 -8 0 10 -4034 -13381
-13381 3;
#X floatatom 49 427 5 0 0 0 - - -;
#X obj 49 461 sel 0 1 2 3 4 5 6 7;
#X obj 101 497 bng 15 250 50 0 empty empty empty 17 7 0 10 -262144
-1 -1;
#X obj 127 497 bng 15 250 50 0 empty empty empty 17 7 0 10 -262144
-1 -1;
#X obj 153 497 bng 15 250 50 0 empty empty empty 17 7 0 10 -262144
-1 -1;
#X obj 180 497 bng 15 250 50 0 empty empty empty 17 7 0 10 -262144
-1 -1;
#X obj 206 496 bng 15 250 50 0 empty empty empty 17 7 0 10 -262144
-1 -1;
#X obj 234 495 bng 15 250 50 0 empty empty empty 17 7 0 10 -262144
-1 -1;
#X obj 262 500 bng 15 250 50 0 empty empty empty 17 7 0 10 -262144
-1 -1;
#X obj 71 497 bng 15 250 50 0 empty empty empty 17 7 0 10 -262144 -1
-1;
#X obj 47 497 bng 15 250 50 0 empty empty empty 17 7 0 10 -262144 -1
-1;
#X obj 368 285 metro 200;
#X floatatom 413 260 5 0 0 0 - - -;
#X obj 478 78 tgl 15 0 empty empty empty 17 7 0 10 -262144 -1 -1 0
1;
#X floatatom 371 333 5 0 0 0 - - -;
#X msg 301 283 0;
#X obj 370 356 % 8;
#X floatatom 370 379 5 0 0 0 - - -;
#X obj 371 403 hradio 15 1 0 8 empty empty empty 0 -8 0 10 -4034 -13381
-13381 0;
#X floatatom 367 424 5 0 0 0 - - -;
#X obj 370 308 float;
#X obj 416 317 + 2;
#X floatatom 452 291 5 0 0 0 - - -;
#X msg 46 534 60;
#X msg 89 534 62;
#X msg 126 532 64;
#X msg 163 535 66;
#X msg 203 536 68;
#X msg 242 539 70;
#X msg 279 535 72;
#X msg 317 536 74;
#X obj 48 569 mtof;
#X obj 48 604 sig~;
#X obj 47 630 osc~;
#X obj 48 656 *~ 1;
#X obj 47 686 dac~;
#X obj 388 472 sel 0 1 2 3 4 5 6 7;
#X obj 440 508 bng 15 250 50 0 empty empty empty 17 7 0 10 -262144
-1 -1;
#X obj 466 508 bng 15 250 50 0 empty empty empty 17 7 0 10 -262144
-1 -1;
#X obj 492 508 bng 15 250 50 0 empty empty empty 17 7 0 10 -262144
-1 -1;
#X obj 519 508 bng 15 250 50 0 empty empty empty 17 7 0 10 -262144
-1 -1;
#X obj 545 507 bng 15 250 50 0 empty empty empty 17 7 0 10 -262144
-1 -1;
#X obj 573 506 bng 15 250 50 0 empty empty empty 17 7 0 10 -262144
-1 -1;
#X obj 601 511 bng 15 250 50 0 empty empty empty 17 7 0 10 -262144
-1 -1;
#X obj 410 508 bng 15 250 50 0 empty empty empty 17 7 0 10 -262144
-1 -1;
#X obj 386 508 bng 15 250 50 0 empty empty empty 17 7 0 10 -262144
-1 -1;
#X obj 391 668 noteout;
#X msg 358 565 60 100 1;
#X msg 394 542 62 100 1;
#X msg 429 567 64 100 1;
#X msg 469 542 66 100 1;
#X msg 496 566 68 100 1;
#X msg 532 541 70 100 1;
#X msg 560 565 72 100 1;
#X text 458 667 midi--Piano 1;
#X msg 142 264 0;
#X text 168 264 <killswitch;
#X obj 922 390 bng 15 250 50 0 empty empty empty 17 7 0 10 -262144
-1 -1;
#X obj 950 395 bng 15 250 50 0 empty empty empty 17 7 0 10 -262144
-1 -1;
#X msg 930 434 70;
#X msg 967 430 72;
#X msg 1005 431 74;
#X text 496 294 comment;
#X msg 607 543 74 100 1;
#X obj 734 519 phasor~;
#X obj 734 490 sig~;
#X obj 738 183 metro 200;
#X floatatom 783 158 5 0 0 0 - - -;
#X obj 516 78 tgl 15 0 empty empty empty 17 7 0 10 -262144 -1 -1 0
1;
#X obj 740 206 cup;
#X floatatom 741 231 5 0 0 0 - - -;
#X msg 700 182 0;
#X obj 740 254 % 8;
#X floatatom 740 277 5 0 0 0 - - -;
#X obj 741 301 hradio 15 1 0 8 empty empty empty 0 -8 0 10 -4034 -13381
-13381 2;
#X floatatom 737 322 5 0 0 0 - - -;
#X obj 737 356 sel 0 1 2 3 4 5 6 7;
#X obj 789 392 bng 15 250 50 0 empty empty empty 17 7 0 10 -262144
-1 -1;
#X obj 815 392 bng 15 250 50 0 empty empty empty 17 7 0 10 -262144
-1 -1;
#X obj 841 392 bng 15 250 50 0 empty empty empty 17 7 0 10 -262144
-1 -1;
#X obj 868 392 bng 15 250 50 0 empty empty empty 17 7 0 10 -262144
-1 -1;
#X obj 894 391 bng 15 250 50 0 empty empty empty 17 7 0 10 -262144
-1 -1;
#X obj 759 392 bng 15 250 50 0 empty empty empty 17 7 0 10 -262144
-1 -1;
#X obj 735 392 bng 15 250 50 0 empty empty empty 17 7 0 10 -262144
-1 -1;
#X msg 734 429 60;
#X msg 777 429 62;
#X msg 814 427 64;
#X msg 851 430 66;
#X msg 891 431 68;
#X obj 736 464 mtof;
#X msg 830 159 0;
#X text 856 159 <killswitch;
#X obj 744 611 complex-mod~;
#X obj 732 548 cos~;
#X obj 783 578 cos~;
#X floatatom 824 580 5 0 0 0 - - -;
#X obj 728 670 dac~;
#X obj 780 551 -~ 1;
#X connect 0 0 3 0;
#X connect 1 0 0 1;
#X connect 2 0 0 0;
#X connect 3 0 4 0;
#X connect 4 0 6 0;
#X connect 5 0 3 0;
#X connect 6 0 7 0;
#X connect 7 0 8 0;
#X connect 8 0 9 0;
#X connect 9 0 10 0;
#X connect 10 0 19 0;
#X connect 10 1 18 0;
#X connect 10 2 11 0;
#X connect 10 3 12 0;
#X connect 10 4 13 0;
#X connect 10 5 14 0;
#X connect 10 6 15 0;
#X connect 10 7 16 0;
#X connect 10 8 17 0;
#X connect 11 0 34 0;
#X connect 12 0 35 0;
#X connect 13 0 36 0;
#X connect 14 0 37 0;
#X connect 15 0 38 0;
#X connect 16 0 39 0;
#X connect 18 0 33 0;
#X connect 19 0 32 0;
#X connect 20 0 29 0;
#X connect 21 0 20 1;
#X connect 22 0 20 0;
#X connect 23 0 25 0;
#X connect 24 0 29 0;
#X connect 25 0 26 0;
#X connect 26 0 27 0;
#X connect 27 0 28 0;
#X connect 28 0 45 0;
#X connect 29 0 23 0;
#X connect 29 0 30 0;
#X connect 30 0 29 1;
#X connect 31 0 30 1;
#X connect 32 0 40 0;
#X connect 33 0 40 0;
#X connect 34 0 40 0;
#X connect 35 0 40 0;
#X connect 36 0 40 0;
#X connect 37 0 40 0;
#X connect 38 0 40 0;
#X connect 39 0 40 0;
#X connect 40 0 41 0;
#X connect 41 0 42 0;
#X connect 42 0 43 0;
#X connect 43 0 44 0;
#X connect 43 0 44 1;
#X connect 45 0 54 0;
#X connect 45 1 53 0;
#X connect 45 2 46 0;
#X connect 45 3 47 0;
#X connect 45 4 48 0;
#X connect 45 5 49 0;
#X connect 45 6 50 0;
#X connect 45 7 51 0;
#X connect 45 8 52 0;
#X connect 46 0 58 0;
#X connect 47 0 59 0;
#X connect 48 0 60 0;
#X connect 49 0 61 0;
#X connect 50 0 62 0;
#X connect 51 0 72 0;
#X connect 53 0 57 0;
#X connect 54 0 56 0;
#X connect 56 0 55 0;
#X connect 57 0 55 0;
#X connect 58 0 55 0;
#X connect 59 0 55 0;
#X connect 60 0 55 0;
#X connect 61 0 55 0;
#X connect 62 0 55 0;
#X connect 64 0 40 0;
#X connect 66 0 70 0;
#X connect 68 0 98 0;
#X connect 69 0 98 0;
#X connect 70 0 98 0;
#X connect 72 0 55 0;
#X connect 73 0 102 0;
#X connect 73 0 106 0;
#X connect 74 0 73 0;
#X connect 75 0 78 0;
#X connect 76 0 75 1;
#X connect 77 0 75 0;
#X connect 78 0 79 0;
#X connect 79 0 81 0;
#X connect 80 0 78 0;
#X connect 81 0 82 0;
#X connect 82 0 83 0;
#X connect 83 0 84 0;
#X connect 84 0 85 0;
#X connect 85 0 92 0;
#X connect 85 1 91 0;
#X connect 85 2 86 0;
#X connect 85 3 87 0;
#X connect 85 4 88 0;
#X connect 85 5 89 0;
#X connect 85 6 90 0;
#X connect 85 7 66 0;
#X connect 85 8 67 0;
#X connect 86 0 95 0;
#X connect 87 0 96 0;
#X connect 88 0 97 0;
#X connect 89 0 68 0;
#X connect 90 0 69 0;
#X connect 91 0 94 0;
#X connect 92 0 93 0;
#X connect 93 0 98 0;
#X connect 94 0 98 0;
#X connect 95 0 98 0;
#X connect 96 0 98 0;
#X connect 97 0 98 0;
#X connect 98 0 74 0;
#X connect 99 0 98 0;
#X connect 101 0 105 0;
#X connect 101 0 105 1;
#X connect 102 0 101 0;
#X connect 103 0 101 1;
#X connect 104 0 101 2;
#X connect 106 0 103 0;
