#N canvas 420 22 802 501 10;
#X obj 61 43 metro 200;
#X floatatom 106 18 5 0 0 0 - - -;
#X obj 57 17 tgl 15 0 empty empty empty 17 7 0 10 -262144 -1 -1 0 1
;
#X obj 63 66 cup;
#X floatatom 64 91 5 0 0 0 - - -;
#X msg 23 42 0;
#X obj 63 114 % 8;
#X floatatom 63 137 5 0 0 0 - - -;
#X obj 64 161 hradio 15 1 0 8 empty empty empty 0 -8 0 10 -4034 -13381
-13381 6;
#X floatatom 60 182 5 0 0 0 - - -;
#X obj 60 216 sel 0 1 2 3 4 5 6 7;
#X obj 112 252 bng 15 250 50 0 empty empty empty 17 7 0 10 -262144
-1 -1;
#X obj 138 252 bng 15 250 50 0 empty empty empty 17 7 0 10 -262144
-1 -1;
#X obj 164 252 bng 15 250 50 0 empty empty empty 17 7 0 10 -262144
-1 -1;
#X obj 191 252 bng 15 250 50 0 empty empty empty 17 7 0 10 -262144
-1 -1;
#X obj 217 251 bng 15 250 50 0 empty empty empty 17 7 0 10 -262144
-1 -1;
#X obj 245 250 bng 15 250 50 0 empty empty empty 17 7 0 10 -262144
-1 -1;
#X obj 273 255 bng 15 250 50 0 empty empty empty 17 7 0 10 -262144
-1 -1;
#X obj 82 252 bng 15 250 50 0 empty empty empty 17 7 0 10 -262144 -1
-1;
#X obj 58 252 bng 15 250 50 0 empty empty empty 17 7 0 10 -262144 -1
-1;
#X obj 350 39 metro 200;
#X floatatom 395 14 5 0 0 0 - - -;
#X obj 346 13 tgl 15 0 empty empty empty 17 7 0 10 -262144 -1 -1 0
1;
#X floatatom 353 87 5 0 0 0 - - -;
#X msg 312 38 0;
#X obj 352 110 % 8;
#X floatatom 352 133 5 0 0 0 - - -;
#X obj 353 157 hradio 15 1 0 8 empty empty empty 0 -8 0 10 -4034 -13381
-13381 0;
#X floatatom 349 178 5 0 0 0 - - -;
#X obj 349 212 sel 0 1 2 3 4 5 6 7;
#X obj 401 248 bng 15 250 50 0 empty empty empty 17 7 0 10 -262144
-1 -1;
#X obj 427 248 bng 15 250 50 0 empty empty empty 17 7 0 10 -262144
-1 -1;
#X obj 453 248 bng 15 250 50 0 empty empty empty 17 7 0 10 -262144
-1 -1;
#X obj 480 248 bng 15 250 50 0 empty empty empty 17 7 0 10 -262144
-1 -1;
#X obj 506 247 bng 15 250 50 0 empty empty empty 17 7 0 10 -262144
-1 -1;
#X obj 534 246 bng 15 250 50 0 empty empty empty 17 7 0 10 -262144
-1 -1;
#X obj 562 251 bng 15 250 50 0 empty empty empty 17 7 0 10 -262144
-1 -1;
#X obj 371 248 bng 15 250 50 0 empty empty empty 17 7 0 10 -262144
-1 -1;
#X obj 347 248 bng 15 250 50 0 empty empty empty 17 7 0 10 -262144
-1 -1;
#X obj 352 62 float;
#X obj 398 71 + 2;
#X floatatom 434 45 5 0 0 0 - - -;
#X text 478 48 use this to change count number;
#X connect 0 0 3 0;
#X connect 1 0 0 1;
#X connect 2 0 0 0;
#X connect 3 0 4 0;
#X connect 4 0 6 0;
#X connect 5 0 3 0;
#X connect 6 0 7 0;
#X connect 7 0 8 0;
#X connect 8 0 9 0;
#X connect 9 0 10 0;
#X connect 10 0 19 0;
#X connect 10 1 18 0;
#X connect 10 2 11 0;
#X connect 10 3 12 0;
#X connect 10 4 13 0;
#X connect 10 5 14 0;
#X connect 10 6 15 0;
#X connect 10 7 16 0;
#X connect 10 8 17 0;
#X connect 20 0 39 0;
#X connect 21 0 20 1;
#X connect 22 0 20 0;
#X connect 23 0 25 0;
#X connect 24 0 39 0;
#X connect 25 0 26 0;
#X connect 26 0 27 0;
#X connect 27 0 28 0;
#X connect 28 0 29 0;
#X connect 29 0 38 0;
#X connect 29 1 37 0;
#X connect 29 2 30 0;
#X connect 29 3 31 0;
#X connect 29 4 32 0;
#X connect 29 5 33 0;
#X connect 29 6 34 0;
#X connect 29 7 35 0;
#X connect 29 8 36 0;
#X connect 39 0 23 0;
#X connect 39 0 40 0;
#X connect 40 0 39 1;
#X connect 41 0 40 1;
